<svg width="100%" height="100%" style="overflow:visible;" preserveAspectRatio="none" viewBox="0 0 20.1 20.1" fill="none" xmlns="http://www.w3.org/2000/svg">
<g clip-path="url(#clip0_42_223)">
<path d="M8.93969 17.3613C8.93967 17.2385 8.91265 17.1172 8.86053 17.006C8.80841 16.8948 8.73247 16.7965 8.6381 16.7179C8.54373 16.6393 8.43323 16.5825 8.31444 16.5514C8.19565 16.5202 8.07147 16.5156 7.9507 16.5379C6.85459 16.739 5.47066 16.7693 5.1027 15.7357C4.78184 14.9353 4.25037 14.2365 3.56463 13.7136C3.5157 13.687 3.46907 13.6564 3.42522 13.622C3.3652 13.4637 3.2586 13.3273 3.11949 13.2308C2.98037 13.1343 2.81526 13.0823 2.64596 13.0815H2.64187C2.42049 13.0815 2.20809 13.1691 2.05116 13.3253C1.89423 13.4814 1.80557 13.6934 1.80456 13.9148C1.80129 14.5975 2.48362 15.035 2.76044 15.183C3.08686 15.511 3.34919 15.897 3.53397 16.3212C3.83897 17.1782 4.72534 18.4783 7.27325 18.3107C7.27409 18.3401 7.27488 18.3679 7.27529 18.3933L7.27897 18.6173C7.27897 18.8394 7.36718 19.0523 7.52421 19.2094C7.68124 19.3664 7.89421 19.4546 8.11628 19.4546C8.33835 19.4546 8.55132 19.3664 8.70835 19.2094C8.86537 19.0523 8.95359 18.8394 8.95359 18.6173L8.9495 18.3507C8.94542 18.1921 8.93969 17.9623 8.93969 17.3613ZM17.8713 4.69612C17.8979 4.59146 17.924 4.47535 17.9469 4.34452C18.0823 3.41141 17.9643 2.45905 17.6051 1.58725C17.5598 1.4736 17.4902 1.37123 17.4011 1.28733C17.3121 1.20343 17.2057 1.14002 17.0896 1.10155C16.7915 1.00097 15.6909 0.803093 13.5862 2.14819C11.8367 1.73648 10.0155 1.73648 8.26593 2.14819C6.16978 0.822795 5.0749 1.00265 4.77971 1.0975C4.6607 1.13441 4.55146 1.19748 4.45998 1.28209C4.36851 1.3667 4.29713 1.47071 4.25108 1.58649C3.88459 2.47503 3.76781 3.44681 3.91337 4.39687C3.93382 4.50399 3.95589 4.60294 3.97879 4.69369C3.28514 5.61762 2.91567 6.74457 2.92766 7.89984C2.9254 8.15759 2.93727 8.41528 2.96322 8.67173C3.24289 12.5255 5.75482 13.6825 7.50506 14.0799C7.46868 14.1846 7.43556 14.2966 7.40612 14.4152C7.35366 14.6306 7.38877 14.8581 7.50375 15.0477C7.61874 15.2372 7.80421 15.3735 8.01951 15.4265C8.23481 15.4796 8.46235 15.4451 8.65225 15.3306C8.84214 15.2161 8.97889 15.031 9.0325 14.8158C9.08577 14.5369 9.22233 14.2806 9.42418 14.0807C9.54622 13.9739 9.63458 13.8339 9.67851 13.6777C9.72244 13.5216 9.72005 13.356 9.67162 13.2012C9.6232 13.0464 9.53082 12.909 9.40574 12.8058C9.28066 12.7025 9.12826 12.6378 8.96709 12.6195C6.07493 12.2892 4.81937 11.1109 4.63049 8.51802C4.60956 8.31265 4.60015 8.10627 4.60228 7.89985C4.58884 7.07648 4.86086 6.27386 5.37213 5.62832C5.4235 5.56102 5.47822 5.49634 5.53607 5.43452C5.63859 5.31981 5.70751 5.17907 5.73528 5.02776C5.76305 4.87644 5.74859 4.72041 5.69349 4.57677C5.637 4.42566 5.5935 4.27001 5.56348 4.1115C5.49526 3.66079 5.51764 3.201 5.62929 2.75904C6.35702 2.96458 7.04193 3.29914 7.6514 3.7468C7.75218 3.81393 7.86623 3.85861 7.98579 3.87779C8.10536 3.89698 8.22766 3.89024 8.34439 3.85801C10.0367 3.39875 11.8208 3.39904 13.513 3.85885C13.6303 3.89104 13.7533 3.8974 13.8733 3.8775C13.9934 3.85759 14.1077 3.8119 14.2084 3.74356C14.815 3.29404 15.4971 2.95649 16.2224 2.7468C16.3335 3.17815 16.3584 3.6272 16.2956 4.06818C16.2652 4.24195 16.2179 4.41231 16.1541 4.57679C16.099 4.72042 16.0845 4.87646 16.1123 5.02778C16.1401 5.17909 16.209 5.31983 16.3115 5.43454C16.3761 5.50731 16.4407 5.58581 16.4988 5.6594C17.0064 6.29401 17.2738 7.08741 17.2539 7.89984C17.2554 8.11721 17.2449 8.3345 17.2224 8.55072C17.0381 11.1093 15.7776 12.2884 12.8719 12.6195C12.7107 12.6379 12.5583 12.7027 12.4332 12.8061C12.3082 12.9094 12.2158 13.0469 12.1675 13.2018C12.1191 13.3567 12.1168 13.5223 12.1607 13.6785C12.2047 13.8347 12.2932 13.9747 12.4153 14.0815C12.6235 14.2867 12.7603 14.5533 12.8057 14.842C12.8623 15.0661 12.8883 15.2969 12.883 15.528V17.4823C12.8748 18.0244 12.8748 18.4308 12.8748 18.6173C12.8748 18.8393 12.963 19.0523 13.12 19.2093C13.2771 19.3663 13.49 19.4546 13.7121 19.4546C13.9342 19.4546 14.1471 19.3663 14.3042 19.2093C14.4612 19.0523 14.5494 18.8393 14.5494 18.6173C14.5494 18.4357 14.5494 18.0375 14.5576 17.4954V15.528C14.5643 15.1578 14.5207 14.7884 14.428 14.4299C14.4015 14.3122 14.369 14.1959 14.3307 14.0816C15.6044 13.87 16.7618 13.2132 17.5967 12.2283C18.4316 11.2433 18.89 9.99403 18.8901 8.70281C18.9177 8.43607 18.9305 8.168 18.9286 7.89984C18.9471 6.74332 18.5746 5.61442 17.8713 4.69614L17.8713 4.69612Z" fill="#F1F1F1"/>
</g>
<defs>
<clipPath id="clip0_42_223">
<rect width="20.0955" height="20.0955" fill="white" transform="translate(0.507568 0.194336)"/>
</clipPath>
</defs>
</svg>
