<svg width="100%" height="100%" style="overflow:visible;" preserveAspectRatio="none" viewBox="0 0 20.1 20.1" fill="none" xmlns="http://www.w3.org/2000/svg">
<g clip-path="url(#clip0_42_10)">
<path d="M8.96134 17.3186C8.96132 17.1958 8.9343 17.0745 8.88218 16.9633C8.83006 16.8522 8.75413 16.7538 8.65975 16.6752C8.56538 16.5966 8.45489 16.5398 8.33609 16.5087C8.2173 16.4776 8.09312 16.473 7.97235 16.4952C6.87625 16.6964 5.49231 16.7266 5.12435 15.6931C4.8035 14.8926 4.27203 14.1939 3.58628 13.671C3.53736 13.6443 3.49073 13.6137 3.44687 13.5794C3.38686 13.4211 3.28026 13.2847 3.14114 13.1882C3.00202 13.0917 2.83692 13.0396 2.66761 13.0389H2.66353C2.44214 13.0388 2.22974 13.1264 2.07281 13.2826C1.91589 13.4388 1.82722 13.6507 1.82621 13.8721C1.82294 14.5549 2.50527 14.9923 2.78209 15.1403C3.10851 15.4683 3.37085 15.8543 3.55562 16.2786C3.86062 17.1355 4.74699 18.4356 7.2949 18.268C7.29574 18.2975 7.29653 18.3252 7.29694 18.3506L7.30062 18.5746C7.30062 18.7967 7.38884 19.0097 7.54586 19.1667C7.70289 19.3237 7.91586 19.412 8.13793 19.412C8.36 19.412 8.57297 19.3237 8.73 19.1667C8.88703 19.0097 8.97524 18.7967 8.97524 18.5746L8.97116 18.3081C8.96707 18.1494 8.96134 17.9196 8.96134 17.3186ZM17.8929 4.65346C17.9195 4.54879 17.9457 4.43268 17.9686 4.30185C18.104 3.36874 17.9859 2.41639 17.6268 1.54459C17.5815 1.43093 17.5118 1.32857 17.4228 1.24467C17.3337 1.16076 17.2274 1.09736 17.1112 1.05889C16.8132 0.958311 15.7126 0.760429 13.6079 2.10553C11.8583 1.69382 10.0371 1.69382 8.28758 2.10553C6.19143 0.780131 5.09655 0.959986 4.80136 1.05484C4.68235 1.09175 4.57311 1.15482 4.48164 1.23943C4.39016 1.32404 4.31878 1.42805 4.27273 1.54383C3.90624 2.43236 3.78947 3.40414 3.93502 4.35421C3.95547 4.46133 3.97754 4.56027 4.00044 4.65103C3.30679 5.57495 2.93732 6.70191 2.94931 7.85718C2.94705 8.11493 2.95892 8.37262 2.98488 8.62907C3.26454 12.4828 5.77647 13.6399 7.52671 14.0373C7.49033 14.1419 7.45721 14.2539 7.42777 14.3725C7.37531 14.5879 7.41042 14.8154 7.5254 15.005C7.64039 15.1946 7.82587 15.3308 8.04116 15.3839C8.25646 15.4369 8.484 15.4024 8.6739 15.2879C8.86379 15.1734 9.00054 14.9883 9.05415 14.7732C9.10743 14.4942 9.24398 14.2379 9.44583 14.0381C9.56787 13.9312 9.65623 13.7912 9.70016 13.6351C9.7441 13.4789 9.7417 13.3134 9.69328 13.1586C9.64485 13.0038 9.55248 12.8664 9.4274 12.7631C9.30231 12.6598 9.14992 12.5951 8.98874 12.5769C6.09658 12.2465 4.84102 11.0682 4.65214 8.47536C4.63122 8.26999 4.6218 8.06361 4.62393 7.85719C4.6105 7.03382 4.88251 6.23119 5.39378 5.58565C5.44515 5.51835 5.49987 5.45367 5.55772 5.39186C5.66024 5.27715 5.72916 5.13641 5.75693 4.9851C5.7847 4.83378 5.77024 4.67774 5.71514 4.53411C5.65865 4.383 5.61516 4.22734 5.58513 4.06884C5.51691 3.61813 5.53929 3.15834 5.65094 2.71638C6.37868 2.92192 7.06358 3.25648 7.67305 3.70414C7.77383 3.77127 7.88788 3.81594 8.00745 3.83513C8.12701 3.85432 8.24931 3.84757 8.36604 3.81535C10.0583 3.35608 11.8425 3.35637 13.5346 3.81619C13.652 3.84837 13.7749 3.85474 13.895 3.83483C14.0151 3.81493 14.1294 3.76924 14.2301 3.7009C14.8367 3.25138 15.5187 2.91382 16.244 2.70414C16.3552 3.13548 16.3801 3.58453 16.3172 4.02552C16.2869 4.19929 16.2395 4.36965 16.1758 4.53412C16.1207 4.67776 16.1062 4.8338 16.134 4.98511C16.1617 5.13643 16.2307 5.27716 16.3332 5.39187C16.3978 5.46464 16.4624 5.54314 16.5204 5.61673C17.0281 6.25135 17.2955 7.04475 17.2756 7.85718C17.2771 8.07455 17.2666 8.29184 17.2441 8.50805C17.0597 11.0666 15.7993 12.2457 12.8936 12.5769C12.7324 12.5952 12.58 12.66 12.4549 12.7634C12.3298 12.8668 12.2375 13.0043 12.1891 13.1591C12.1407 13.314 12.1384 13.4796 12.1824 13.6358C12.2264 13.792 12.3148 13.932 12.4369 14.0389C12.6451 14.244 12.782 14.5106 12.8274 14.7993C12.8839 15.0235 12.9099 15.2543 12.9046 15.4854V17.4397C12.8964 17.9818 12.8964 18.3882 12.8964 18.5746C12.8964 18.7967 12.9847 19.0096 13.1417 19.1667C13.2987 19.3237 13.5117 19.4119 13.7338 19.4119C13.9558 19.4119 14.1688 19.3237 14.3258 19.1667C14.4828 19.0096 14.5711 18.7967 14.5711 18.5746C14.5711 18.3931 14.5711 17.9949 14.5792 17.4527V15.4854C14.586 15.1151 14.5424 14.7457 14.4496 14.3872C14.4231 14.2695 14.3906 14.1533 14.3523 14.0389C15.6261 13.8273 16.7834 13.1706 17.6184 12.1856C18.4533 11.2006 18.9116 9.95137 18.9118 8.66015C18.9393 8.3934 18.9522 8.12534 18.9502 7.85718C18.9688 6.70066 18.5962 5.57176 17.8929 4.65347L17.8929 4.65346Z" fill="#F1F1F1" fill-opacity="0.7"/>
</g>
<defs>
<clipPath id="clip0_42_10">
<rect width="20.0955" height="20.0955" fill="white" transform="translate(0.529419 0.151245)"/>
</clipPath>
</defs>
</svg>
