<svg width="100%" height="100%" style="overflow:visible;" preserveAspectRatio="none" viewBox="0 0 72.61 72.61" fill="none" xmlns="http://www.w3.org/2000/svg">
<g clip-path="url(#clip0_2_164)">
<path d="M8.06728 64.7984V8.07568H64.79V64.7984H8.06728Z" fill="#FFD600"/>
<path d="M45.1546 50.5342C46.2449 52.3051 47.4298 54.0021 49.9397 54.0021C52.0479 54.0021 53.1541 52.9544 53.1541 51.5047C53.1541 49.77 52.0101 49.1539 49.6908 48.1439L48.4192 47.6019C44.7496 46.0452 42.3089 44.0945 42.3089 39.9743C42.3089 36.177 45.216 33.2873 49.7585 33.2873C52.9933 33.2873 55.3173 34.4075 56.9938 37.3414L53.0327 39.8734C52.1613 38.3167 51.2191 37.7038 49.7585 37.7038C48.268 37.7038 47.3242 38.6445 47.3242 39.8734C47.3242 41.3923 48.2695 42.0069 50.4518 42.9475L51.7233 43.4895C56.0484 45.3314 58.4875 47.2127 58.4875 51.4417C58.4875 55.9984 54.8888 58.4958 50.0579 58.4958C45.3326 58.4958 42.6493 56.1244 41.1556 53.189L45.1546 50.5342ZM26.8993 50.6634C27.6966 52.0908 28.9082 53.189 30.6508 53.189C32.3179 53.189 33.2775 52.5304 33.2775 49.97V33.2858H38.529V50.7768C38.529 56.0819 35.4518 58.4958 30.9581 58.4958C26.8977 58.4958 23.967 55.7448 22.7727 53.189L26.8993 50.6634Z" fill="#000001"/>
</g>
<defs>
<clipPath id="clip0_2_164">
<rect x="8.06728" y="8.07568" width="56.7227" height="56.7227" rx="3.40336" fill="white"/>
</clipPath>
</defs>
</svg>
