<svg width="100%" height="100%" style="overflow:visible;" preserveAspectRatio="none" viewBox="0 0 72.61 72.61" fill="none" xmlns="http://www.w3.org/2000/svg">
<g clip-path="url(#clip0_2_167)">
<mask id="mask0_2_167" style="mask-type:luminance" maskUnits="userSpaceOnUse" x="23" y="7" width="27" height="58">
<path d="M49.4679 7.83777H23.0853V64.5605H49.4679V7.83777Z" fill="white"/>
</mask>
<g mask="url(#mask0_2_167)">
<path d="M41.3352 14.1599C38.944 11.3354 36.885 8.46667 36.4643 7.87087C36.42 7.82674 36.3536 7.82674 36.3093 7.87087C35.8887 8.46667 33.8296 11.3354 31.4384 14.1599C10.9142 40.2208 34.6709 57.8081 34.6709 57.8081L34.8702 57.9404C35.0473 60.6547 35.4901 64.5605 35.4901 64.5605H36.3757H37.2614C37.2614 64.5605 37.7042 60.6767 37.8813 57.9404L38.0806 57.7861C38.1027 57.7861 61.8594 40.2208 41.3352 14.1599ZM36.3757 57.4107C36.3757 57.4107 35.313 56.5061 35.0252 56.0426V55.9986L36.3093 27.6206C36.3093 27.5323 36.4422 27.5323 36.4422 27.6206L37.7263 55.9986V56.0426C37.4385 56.5061 36.3757 57.4107 36.3757 57.4107Z" fill="#00684A"/>
</g>
</g>
<defs>
<clipPath id="clip0_2_167">
<rect width="56.7227" height="56.7227" fill="white" transform="translate(8.63861 8.07568)"/>
</clipPath>
</defs>
</svg>
