<svg width="100%" height="100%" style="overflow:visible;" preserveAspectRatio="none" viewBox="0 0 72.61 72.61" fill="none" xmlns="http://www.w3.org/2000/svg">
<g clip-path="url(#clip0_2_448)">
<path d="M41.8711 30.8682H46.9565V36.0668H49.5281C50.7304 36.0611 51.9238 35.8609 53.0622 35.4742C53.6162 35.2863 54.2354 35.0261 54.7798 34.6985C54.0619 33.7614 53.6957 32.5786 53.5753 31.4102C53.4283 29.8239 53.7487 27.7581 54.8232 26.5163L55.358 25.8984L55.9963 26.4103C57.6008 27.6991 58.9498 29.4999 59.1883 31.5535C61.1191 30.985 63.3872 31.1199 65.0904 32.1028L65.789 32.5063L65.4216 33.2242C63.9919 36.0307 60.9806 36.9016 58.038 36.7474C53.6343 47.7144 44.0476 52.9071 32.4241 52.9071C26.4185 52.9071 20.909 50.6619 17.7725 45.3343C17.5882 45.0031 17.4316 44.6574 17.2642 44.3177C16.2042 41.9725 15.8513 39.4033 16.0898 36.8498L16.1621 36.0813H20.4983V30.8718H25.5837V25.7864H35.7558V20.7009H41.859V30.873" fill="#394D54"/>
<mask id="mask0_2_448" style="mask-type:luminance" maskUnits="userSpaceOnUse" x="16" y="21" width="49" height="32">
<path d="M25.9711 21.1412V31.3727H21.0778V36.4884H16.9807L16.9349 36.9333C16.6791 39.7202 17.1653 42.291 18.2835 44.489L18.6589 45.1629C18.8813 45.5671 19.1482 45.9465 19.4236 46.3169C19.699 46.6872 19.7986 46.8914 19.973 47.1372C22.9283 50.4566 27.3345 52.0581 32.4213 52.0581C43.6866 52.0581 53.2475 47.0673 57.4787 35.8559C60.4807 36.1637 63.3604 35.3941 64.6727 32.8325C62.5819 31.626 59.8955 32.0128 58.3477 32.7909L62.4485 21.1412L46.434 31.3727H41.3183V21.1412H25.9711Z" fill="white"/>
</mask>
<g mask="url(#mask0_2_448)">
<path d="M36.6161 21.5437H41.0241V25.9517H36.6161V21.5437Z" fill="#20C2EF"/>
<path d="M37.157 25.5844V21.9106ZM37.818 25.5842V21.9106ZM38.4857 25.5842V21.9106ZM39.1537 25.5842V21.9106ZM39.8216 25.5842V21.9106ZM40.4822 25.5842V21.9106Z" fill="black"/>
<path d="M37.157 25.5844V21.9106M37.818 25.5842V21.9106M38.4857 25.5842V21.9106M39.1537 25.5842V21.9106M39.8216 25.5842V21.9106M40.4822 25.5842V21.9106" stroke="#394D54" stroke-width="0.444071"/>
<path d="M41.702 25.954H46.11V21.5462H41.702V25.954Z" fill="#00ACD3"/>
<path d="M42.2429 21.9111V25.5848ZM42.9039 21.9113V25.5848ZM43.5716 21.9113V25.5848ZM44.2396 21.9113V25.5848ZM44.9075 21.9113V25.5848ZM45.5681 21.9113V25.5848Z" fill="black"/>
<path d="M42.2429 21.9111V25.5848M42.9039 21.9113V25.5848M43.5716 21.9113V25.5848M44.2396 21.9113V25.5848M44.9075 21.9113V25.5848M45.5681 21.9113V25.5848" stroke="#394D54" stroke-width="0.444071"/>
<path d="M16.2724 26.6274H20.6804V31.0352H16.2724V26.6274Z" fill="#00ACD3"/>
<path d="M16.2724 31.7156H20.6804V36.1236H16.2724V31.7156Z" fill="#20C2EF"/>
<path d="M16.8133 30.6703V26.9966ZM17.4743 30.6701V26.9966ZM18.1421 30.6701V26.9966ZM18.81 30.6701V26.9966ZM19.4779 30.6701V26.9966ZM20.1385 30.6701V26.9966Z" fill="black"/>
<path d="M16.8133 30.6703V26.9966M17.4743 30.6701V26.9966M18.1421 30.6701V26.9966M18.81 30.6701V26.9966M19.4779 30.6701V26.9966M20.1385 30.6701V26.9966" stroke="#394D54" stroke-width="0.444071"/>
<path d="M16.8133 35.7563V32.0825ZM17.4743 35.7561V32.0825ZM18.1421 35.7561V32.0825ZM18.81 35.7561V32.0825ZM19.4779 35.7561V32.0825ZM20.1385 35.7561V32.0825Z" fill="black"/>
<path d="M16.8133 35.7563V32.0825M17.4743 35.7561V32.0825M18.1421 35.7561V32.0825M18.81 35.7561V32.0825M19.4779 35.7561V32.0825M20.1385 35.7561V32.0825" stroke="#394D54" stroke-width="0.444071"/>
<path d="M21.3583 36.1262H25.7663V31.7185H21.3583V36.1262Z" fill="#00ACD3"/>
<path d="M21.3582 31.0381H25.7662V26.6301H21.3582V31.0381Z" fill="#20C2EF"/>
<path d="M21.8991 32.083V35.7567ZM22.5602 32.0832V35.7567ZM23.2279 32.0832V35.7567ZM23.8958 32.0832V35.7567ZM24.5638 32.0832V35.7567ZM25.2244 32.0832V35.7567Z" fill="black"/>
<path d="M21.8991 32.083V35.7567M22.5602 32.0832V35.7567M23.2279 32.0832V35.7567M23.8958 32.0832V35.7567M24.5638 32.0832V35.7567M25.2244 32.0832V35.7567" stroke="#394D54" stroke-width="0.444071"/>
<path d="M21.8991 26.997V30.6708ZM22.5602 26.9972V30.6708ZM23.2279 26.9972V30.6708ZM23.8958 26.9972V30.6708ZM24.5638 26.9972V30.6708ZM25.2244 26.9972V30.6708Z" fill="black"/>
<path d="M21.8991 26.997V30.6708M22.5602 26.9972V30.6708M23.2279 26.9972V30.6708M23.8958 26.9972V30.6708M24.5638 26.9972V30.6708M25.2244 26.9972V30.6708" stroke="#394D54" stroke-width="0.444071"/>
<path d="M26.4443 26.6274H30.8523V31.0352H26.4443V26.6274Z" fill="#00ACD3"/>
<path d="M26.4442 31.7156H30.8522V36.1236H26.4442V31.7156Z" fill="#20C2EF"/>
<path d="M26.9852 30.6703V26.9966ZM27.6462 30.6701V26.9966ZM28.3139 30.6701V26.9966ZM28.9819 30.6701V26.9966ZM29.6498 30.6701V26.9966ZM30.3104 30.6701V26.9966Z" fill="black"/>
<path d="M26.9852 30.6703V26.9966M27.6462 30.6701V26.9966M28.3139 30.6701V26.9966M28.9819 30.6701V26.9966M29.6498 30.6701V26.9966M30.3104 30.6701V26.9966" stroke="#394D54" stroke-width="0.444071"/>
<path d="M26.9852 35.7563V32.0825ZM27.6462 35.7561V32.0825ZM28.3139 35.7561V32.0825ZM28.9819 35.7561V32.0825ZM29.6498 35.7561V32.0825ZM30.3104 35.7561V32.0825Z" fill="black"/>
<path d="M26.9852 35.7563V32.0825M27.6462 35.7561V32.0825M28.3139 35.7561V32.0825M28.9819 35.7561V32.0825M29.6498 35.7561V32.0825M30.3104 35.7561V32.0825" stroke="#394D54" stroke-width="0.444071"/>
<path d="M31.5302 36.1262H35.9381V31.7185H31.5302V36.1262Z" fill="#00ACD3"/>
<path d="M31.5302 31.0381H35.9381V26.6301H31.5302V31.0381Z" fill="#20C2EF"/>
<path d="M32.0711 32.083V35.7567ZM32.7321 32.0832V35.7567ZM33.3998 32.0832V35.7567ZM34.0678 32.0832V35.7567ZM34.7357 32.0832V35.7567ZM35.3963 32.0832V35.7567Z" fill="black"/>
<path d="M32.0711 32.083V35.7567M32.7321 32.0832V35.7567M33.3998 32.0832V35.7567M34.0678 32.0832V35.7567M34.7357 32.0832V35.7567M35.3963 32.0832V35.7567" stroke="#394D54" stroke-width="0.444071"/>
<path d="M32.0711 26.997V30.6708ZM32.7321 26.9972V30.6708ZM33.3998 26.9972V30.6708ZM34.0678 26.9972V30.6708ZM34.7357 26.9972V30.6708ZM35.3963 26.9972V30.6708Z" fill="black"/>
<path d="M32.0711 26.997V30.6708M32.7321 26.9972V30.6708M33.3998 26.9972V30.6708M34.0678 26.9972V30.6708M34.7357 26.9972V30.6708M35.3963 26.9972V30.6708" stroke="#394D54" stroke-width="0.444071"/>
<path d="M36.6161 26.6274H41.0241V31.0352H36.6161V26.6274Z" fill="#00ACD3"/>
<path d="M36.6161 31.7156H41.0241V36.1236H36.6161V31.7156Z" fill="#20C2EF"/>
<path d="M37.157 30.6703V26.9966ZM37.818 30.6701V26.9966ZM38.4857 30.6701V26.9966ZM39.1537 30.6701V26.9966ZM39.8216 30.6701V26.9966ZM40.4822 30.6701V26.9966Z" fill="black"/>
<path d="M37.157 30.6703V26.9966M37.818 30.6701V26.9966M38.4857 30.6701V26.9966M39.1537 30.6701V26.9966M39.8216 30.6701V26.9966M40.4822 30.6701V26.9966" stroke="#394D54" stroke-width="0.444071"/>
<path d="M37.157 35.7563V32.0825ZM37.818 35.7561V32.0825ZM38.4857 35.7561V32.0825ZM39.1537 35.7561V32.0825ZM39.8216 35.7561V32.0825ZM40.4822 35.7561V32.0825Z" fill="black"/>
<path d="M37.157 35.7563V32.0825M37.818 35.7561V32.0825M38.4857 35.7561V32.0825M39.1537 35.7561V32.0825M39.8216 35.7561V32.0825M40.4822 35.7561V32.0825" stroke="#394D54" stroke-width="0.444071"/>
<path d="M41.702 36.1262H46.11V31.7185H41.702V36.1262Z" fill="#00ACD3"/>
<path d="M41.702 31.0381H46.11V26.6301H41.702V31.0381Z" fill="#20C2EF"/>
<path d="M42.2429 32.083V35.7567ZM42.9039 32.0832V35.7567ZM43.5716 32.0832V35.7567ZM44.2396 32.0832V35.7567ZM44.9075 32.0832V35.7567ZM45.5681 32.0832V35.7567Z" fill="black"/>
<path d="M42.2429 32.083V35.7567M42.9039 32.0832V35.7567M43.5716 32.0832V35.7567M44.2396 32.0832V35.7567M44.9075 32.0832V35.7567M45.5681 32.0832V35.7567" stroke="#394D54" stroke-width="0.444071"/>
<path d="M42.2429 26.997V30.6708ZM42.9039 26.9972V30.6708ZM43.5716 26.9972V30.6708ZM44.2396 26.9972V30.6708ZM44.9075 26.9972V30.6708ZM45.5681 26.9972V30.6708Z" fill="black"/>
<path d="M42.2429 26.997V30.6708M42.9039 26.9972V30.6708M43.5716 26.9972V30.6708M44.2396 26.9972V30.6708M44.9075 26.9972V30.6708M45.5681 26.9972V30.6708" stroke="#394D54" stroke-width="0.444071"/>
<path d="M58.3491 32.7917C58.6901 30.1415 56.7067 28.0596 55.4767 27.0714C54.0592 28.7102 53.839 33.0052 56.0628 34.8133C54.8217 35.9156 52.2066 36.9147 49.5289 36.9147H16.6291C16.3689 39.7099 16.6291 53.1701 16.6291 53.1701H64.895L64.6755 32.8353C62.5847 31.6289 59.8969 32.0139 58.3491 32.7917Z" fill="#17B5EB"/>
<path d="M16.6292 40.4919V53.1701H64.895V40.4919" fill="black" fill-opacity="0.17"/>
<path d="M33.8085 52.0357C30.7969 50.6067 29.1438 48.6638 28.2241 46.5432L19.0758 46.9422L23.7467 53.1701L33.8085 52.0357Z" fill="#D4EDF1"/>
<path d="M58.5559 32.6934V32.7001C53.9162 38.6833 47.2606 43.9058 40.1157 46.6505C33.7422 49.0989 28.1854 49.1105 24.3515 47.1442C23.9386 46.9111 23.5338 46.6522 23.1281 46.4076C20.3174 44.4431 18.7344 41.194 18.8674 36.913H16.6292V53.1701H64.895V31.8175H59.3344L58.5559 32.6934Z" fill="black" fill-opacity="0.085"/>
</g>
<path d="M19.2155 46.7268C22.3665 46.8991 25.7283 46.9316 28.6613 46.0114" stroke="#394D54" stroke-width="0.968092" stroke-linecap="round"/>
<path d="M31.7919 44.4865C31.7915 44.8087 31.6634 45.1176 31.4355 45.3455C31.2077 45.5733 30.8987 45.7015 30.5765 45.7018C30.2541 45.7018 29.9448 45.5738 29.7167 45.3459C29.4886 45.118 29.3603 44.8089 29.36 44.4865C29.36 44.1638 29.4881 43.8544 29.7163 43.6262C29.9444 43.3981 30.2539 43.2699 30.5765 43.2699C30.8989 43.2702 31.2081 43.3985 31.436 43.6266C31.6639 43.8548 31.7919 44.164 31.7919 44.4865Z" fill="#D4EDF1"/>
<path d="M30.9041 43.6758C30.7981 43.736 30.7258 43.8516 30.7258 43.9841C30.7258 44.1805 30.8848 44.3395 31.0811 44.3395C31.216 44.3395 31.322 44.2648 31.3943 44.154C31.4379 44.2598 31.4604 44.3731 31.4606 44.4876C31.4606 44.9694 31.0703 45.3585 30.5897 45.3585C30.1091 45.3585 29.7188 44.9682 29.7188 44.4876C29.7188 44.007 30.1091 43.6167 30.5897 43.6167C30.6976 43.6166 30.8035 43.6366 30.9041 43.6758ZM9.06635 40.7488H65.6349C64.4026 40.4356 61.7383 40.0261 62.1779 38.4C59.9375 40.9921 54.5365 40.2068 53.1742 38.9396C51.6565 41.1415 42.8191 40.3044 42.2036 38.5783C40.3004 40.8114 34.4044 40.8114 32.5013 38.5783C31.8845 40.2935 23.0483 41.1318 21.5402 38.9396C20.1647 40.2068 14.7637 40.9933 12.5233 38.4C12.9629 40.0141 10.2974 40.4477 9.06635 40.7488Z" fill="#394D54"/>
</g>
<defs>
<clipPath id="clip0_2_448">
<rect width="56.7227" height="56.7227" fill="white" transform="translate(8.78156 8.50439)"/>
</clipPath>
</defs>
</svg>
