<svg width="100%" height="100%" style="overflow:visible;" preserveAspectRatio="none" viewBox="0 0 72.61 72.61" fill="none" xmlns="http://www.w3.org/2000/svg">
<g clip-path="url(#clip0_2_406)">
<path d="M30.3128 52.0745C30.3128 52.0745 28.1325 53.4004 31.8284 53.7797C36.2777 54.3469 38.6476 54.253 43.5719 53.3064C44.5616 53.9125 45.6083 54.4201 46.697 54.822C35.6182 59.5584 21.5987 54.5384 30.3128 52.0745ZM28.8948 45.9182C28.8948 45.9182 26.5266 47.7174 30.2207 48.0985C35.051 48.5718 38.8391 48.6658 45.3764 47.3416C46.0122 47.9864 46.7906 48.4728 47.6489 48.7615C34.2941 52.7392 19.3298 49.139 28.8948 45.9182ZM55.0353 56.7134C55.0353 56.7134 56.6449 58.0393 53.2361 59.0816C46.8902 60.9783 26.6223 61.5455 20.9393 59.0816C18.9505 58.2307 22.7385 56.9988 23.9527 56.8091C25.1847 56.5255 25.8494 56.5255 25.8494 56.5255C23.6691 55.0099 11.3584 59.6506 19.5992 60.9747C42.2354 64.6688 60.8938 59.3652 55.0212 56.7134H55.0353ZM31.3374 39.4766C31.3374 39.4766 21.0138 41.9405 27.6433 42.7913C30.4848 43.1707 36.072 43.075 41.2817 42.6974C45.543 42.3181 49.8079 41.5629 49.8079 41.5629C49.8079 41.5629 48.2924 42.2259 47.2501 42.8888C36.7385 45.6364 16.5628 44.4044 22.3415 41.5629C27.2657 39.1947 31.3392 39.4801 31.3392 39.4801L31.3374 39.4766ZM49.8079 49.8002C60.4152 44.3052 55.4909 39.0051 52.0804 39.6662C51.2296 39.8559 50.8484 40.0456 50.8484 40.0456C50.8484 40.0456 51.1321 39.4784 51.795 39.2887C58.5203 36.9205 63.8239 46.3915 49.6147 50.0838C49.6147 50.0838 49.7087 49.9899 49.8044 49.8002H49.8079ZM32.3832 64.7645C42.6112 65.4275 58.2402 64.3852 58.6178 59.5531C58.6178 59.5531 57.8609 61.4498 50.189 62.8678C41.4749 64.4774 30.678 64.2859 24.3321 63.2472C24.3321 63.2472 25.658 64.3834 32.3832 64.7645Z" fill="#4E7896"/>
<path d="M43.384 8.22205C43.384 8.22205 49.2567 14.1886 37.7968 23.1864C28.6094 30.4788 35.714 34.6462 37.7968 39.3826C32.3974 34.5523 28.5154 30.2892 31.1673 26.3132C35.0493 20.4388 45.7522 17.6151 43.384 8.22205ZM40.3706 35.4049C43.1181 38.53 39.6137 41.3715 39.6137 41.3715C39.6137 41.3715 46.6226 37.7731 43.4018 33.3203C40.4663 29.059 38.1903 26.9744 50.5046 19.8716C50.5046 19.8716 31.0893 24.7019 40.3706 35.4049Z" fill="#F58219"/>
</g>
<defs>
<clipPath id="clip0_2_406">
<rect width="56.7227" height="56.7227" fill="white" transform="translate(8.49583 8.50439)"/>
</clipPath>
</defs>
</svg>
