<svg width="100%" height="100%" style="overflow:visible;" preserveAspectRatio="none" viewBox="0 0 72.61 72.61" fill="none" xmlns="http://www.w3.org/2000/svg">
<g clip-path="url(#clip0_2_608)">
<path d="M44.863 26.6429L46.6799 26.6739L51.6166 21.7373L51.8559 19.6456C47.9402 16.1572 42.7705 14.0327 37.1213 14.0327C26.8935 14.0327 18.261 20.9919 15.7058 30.4185C16.2447 30.0427 17.3968 30.3245 17.3968 30.3245L27.2613 28.7026C27.2613 28.7026 27.7682 27.8633 28.0253 27.905C29.1787 26.6377 30.5842 25.6254 32.1516 24.933C33.7191 24.2405 35.4139 23.8832 37.1275 23.8839C40.0522 23.8901 42.7466 24.9235 44.863 26.6331V26.6429Z" fill="#EA4335"/>
<path d="M58.5492 30.4376C57.4032 26.21 55.0412 22.477 51.8533 19.6453L44.8631 26.6354C47.6637 28.8955 49.4603 32.3538 49.4603 36.2251V37.4589C52.861 37.4589 55.6235 40.2276 55.6235 43.6221C55.6235 47.0228 52.8548 49.7854 49.4603 49.7854H37.1337L35.9 51.0262V58.4232L37.1337 59.6507H49.4603C53.7094 59.6449 57.7828 57.9544 60.7874 54.9499C63.7921 51.9454 65.4828 47.8721 65.4889 43.623C65.4827 38.1679 62.7413 33.3411 58.5492 30.4376Z" fill="#4285F4"/>
<path d="M24.7947 59.6587H37.1142V49.7854H24.7947C23.9195 49.7856 23.0544 49.5975 22.2582 49.2341L20.4794 49.7792L15.5427 54.7158L15.1102 56.3821C17.8922 58.5044 21.2948 59.6532 24.7939 59.6516L24.7947 59.6587Z" fill="#34A853"/>
<path d="M24.7947 27.6018C20.5456 27.6077 16.4722 29.2982 13.4676 32.3026C10.4629 35.3071 8.77222 39.3804 8.76613 43.6295C8.76613 48.8347 11.2593 53.4629 15.1173 56.3948L22.2644 49.2477C21.1826 48.7599 20.2644 47.9704 19.6201 46.9739C18.9757 45.9774 18.6324 44.8162 18.6314 43.6295C18.6314 40.2288 21.4002 37.4662 24.7947 37.4662C27.2941 37.4662 29.4424 38.9729 30.4138 41.1L37.5609 33.953C34.6299 30.0949 30.0008 27.6018 24.7956 27.6018H24.7947Z" fill="#FBBC05"/>
</g>
<defs>
<clipPath id="clip0_2_608">
<rect width="56.7227" height="56.7227" fill="white" transform="translate(8.83614 7.93286)"/>
</clipPath>
</defs>
</svg>
