<svg width="100%" height="100%" style="overflow:visible;" preserveAspectRatio="none" viewBox="0 0 72.61 72.61" fill="none" xmlns="http://www.w3.org/2000/svg">
<g clip-path="url(#clip0_2_204)">
<mask id="mask0_2_204" style="mask-type:luminance" maskUnits="userSpaceOnUse" x="17" y="7" width="39" height="58">
<path d="M55.7959 7.83777H17.9808V64.5605H55.7959V7.83777Z" fill="white"/>
</mask>
<g mask="url(#mask0_2_204)">
<path d="M36.8883 36.1991C36.8883 33.6919 37.8844 31.2873 39.6573 29.5143C41.4302 27.7414 43.8348 26.7454 46.3421 26.7454C48.8494 26.7454 51.254 27.7414 53.0269 29.5143C54.7999 31.2873 55.7959 33.6919 55.7959 36.1991C55.7959 38.7064 54.7999 41.111 53.0269 42.8839C51.254 44.6569 48.8494 45.6529 46.3421 45.6529C43.8348 45.6529 41.4302 44.6569 39.6573 42.8839C37.8844 41.111 36.8883 38.7064 36.8883 36.1991Z" fill="#1ABCFE"/>
<path d="M17.9807 55.1068C17.9807 52.5994 18.9768 50.1948 20.7497 48.4219C22.5226 46.649 24.9272 45.653 27.4345 45.653H36.8883V55.1068C36.8883 57.6141 35.8923 60.0187 34.1193 61.7916C32.3465 63.5646 29.9418 64.5606 27.4345 64.5606C24.9272 64.5606 22.5226 63.5646 20.7497 61.7916C18.9768 60.0187 17.9807 57.6141 17.9807 55.1068Z" fill="#0ACF83"/>
<path d="M36.8883 7.83777V26.7453H46.3421C48.8494 26.7453 51.254 25.7493 53.0269 23.9763C54.7999 22.2034 55.7959 19.7988 55.7959 17.2916C55.7959 14.7843 54.7999 12.3796 53.0269 10.6067C51.254 8.83379 48.8494 7.83777 46.3421 7.83777H36.8883Z" fill="#FF7262"/>
<path d="M17.9808 17.2916C17.9808 19.7988 18.9768 22.2034 20.7497 23.9763C22.5227 25.7493 24.9273 26.7453 27.4346 26.7453H36.8883V7.83777H27.4346C24.9273 7.83777 22.5227 8.83379 20.7497 10.6067C18.9768 12.3796 17.9808 14.7843 17.9808 17.2916Z" fill="#F24E1E"/>
<path d="M17.9807 36.1991C17.9807 38.7064 18.9768 41.111 20.7497 42.8839C22.5226 44.6569 24.9272 45.6529 27.4345 45.6529H36.8883V26.7454H27.4345C24.9272 26.7454 22.5226 27.7414 20.7497 29.5143C18.9768 31.2873 17.9807 33.6919 17.9807 36.1991Z" fill="#A259FF"/>
</g>
</g>
<defs>
<clipPath id="clip0_2_204">
<rect width="56.7227" height="56.7227" fill="white" transform="translate(8.78152 8.07568)"/>
</clipPath>
</defs>
</svg>
