<svg width="100%" height="100%" style="overflow:visible;" preserveAspectRatio="none" viewBox="0 0 72.61 72.61" fill="none" xmlns="http://www.w3.org/2000/svg">
<g clip-path="url(#clip0_2_299)">
<path d="M23.6289 23.0936L19.9614 19.4243L19.9756 45.9271L20.0199 47.1644C20.0376 47.7494 20.1484 48.4052 20.3257 49.0877L49.3739 59.3332L56.6415 56.116L56.6477 56.1053L23.6271 23.0936H23.6289Z" fill="#00C4B3"/>
<path d="M20.3266 49.0876H20.3292C20.3266 49.0769 20.3221 49.0645 20.3168 49.0521C20.323 49.0654 20.323 49.0787 20.3257 49.0876H20.3266ZM56.6344 56.1159L49.3668 59.3331L20.323 49.0876C20.8769 51.2182 22.1062 53.613 23.4268 54.9194L32.9013 64.3469L53.9844 64.3735L56.6256 56.1159H56.6344Z" fill="#22D3C5"/>
<path d="M20.0607 19.4252L8.76667 36.4819C7.82897 37.4834 8.29694 39.5502 9.80629 41.0729L16.3259 47.6456L20.4241 49.0903C20.2468 48.4096 20.1352 47.7608 20.1183 47.167L20.074 45.9298L20.0607 19.4269V19.4252Z" fill="#0075C9"/>
<path d="M49.6133 19.7665C48.9308 19.5936 48.2768 19.4846 47.6874 19.4678L46.3774 19.4199L19.9615 19.4261L56.6469 56.1063L59.8695 48.8386L49.6151 19.7682L49.6133 19.7665Z" fill="#0075C9"/>
<path d="M49.5796 19.7602C49.5911 19.7646 49.6035 19.7673 49.6132 19.7691V19.7655C49.6017 19.7629 49.5911 19.7629 49.5796 19.7584V19.7602ZM55.4424 22.8782C54.1085 21.5354 51.7465 20.3079 49.6132 19.7691L59.8677 48.8368L56.6415 56.1044L64.5136 53.5891L64.5313 32.0061L55.4415 22.8773L55.4424 22.8782Z" fill="#00A8E1"/>
<path d="M48.1756 15.6938L41.6171 9.17067C40.0873 7.66663 38.0205 7.1969 37.0278 8.13282L19.972 19.4242L46.388 19.418L47.6979 19.4659C48.2873 19.4836 48.9423 19.5917 49.6238 19.7645L48.1774 15.692L48.1756 15.6938Z" fill="#00C4B3"/>
</g>
<defs>
<clipPath id="clip0_2_299">
<rect width="56.7227" height="56.7227" fill="white" transform="translate(8.35294 8.07568)"/>
</clipPath>
</defs>
</svg>
