<svg width="100%" height="100%" style="overflow:visible;" preserveAspectRatio="none" viewBox="0 0 72.61 72.61" fill="none" xmlns="http://www.w3.org/2000/svg">
<g clip-path="url(#clip0_2_583)">
<path d="M57.6618 16.4354C52.4234 8.89011 41.9945 6.6794 34.4973 11.4372L21.281 19.8956C17.6766 22.1544 15.1775 25.8549 14.4566 30.0361C13.8319 33.5444 14.3605 37.1488 16.0426 40.2726C14.8892 42.0028 14.1202 43.9251 13.7838 45.9436C13.0149 50.2209 14.0241 54.6423 16.5232 58.1506C21.8097 65.6959 32.1905 67.9066 39.6877 63.1487L52.904 54.7384C56.5084 52.4796 59.0075 48.7791 59.7284 44.598C60.3531 41.0896 59.8245 37.4852 58.1424 34.3614C59.2958 32.6313 60.0648 30.7089 60.4012 28.6904C61.2182 24.3651 60.2089 19.9437 57.6618 16.4354Z" fill="#FF3E00"/>
<path d="M33.1997 58.8716C28.9224 59.977 24.4529 58.2949 21.9538 54.6905C20.4159 52.5759 19.8392 49.9326 20.2718 47.3374C20.3679 46.9049 20.464 46.5204 20.5601 46.0879L20.8004 45.319L21.4732 45.7995C23.0592 46.953 24.7893 47.818 26.6636 48.3947L27.1442 48.5389L27.0962 49.0195C27.0481 49.6923 27.2403 50.4132 27.6248 50.9899C28.3938 52.0953 29.7394 52.6239 31.037 52.2875C31.3254 52.1914 31.6137 52.0953 31.854 51.9511L45.0222 43.5408C45.6951 43.1082 46.1276 42.4835 46.2718 41.7145C46.4159 40.9456 46.2237 40.1286 45.7912 39.5038C45.0222 38.3985 43.6766 37.9179 42.379 38.2543C42.0906 38.3504 41.8023 38.4465 41.562 38.5907L36.5158 41.8106C35.6988 42.3393 34.7856 42.7238 33.8244 42.9641C29.5472 44.0694 25.0777 42.3874 22.5786 38.7829C21.0888 36.6683 20.464 34.0251 20.9446 31.4299C21.3771 28.9308 22.915 26.6721 25.0777 25.3264L38.2939 16.9161C39.1109 16.3874 40.0241 16.003 40.9853 15.7146C45.2625 14.6093 49.732 16.2913 52.2311 19.8957C53.769 22.0103 54.3457 24.6536 53.9132 27.2488C53.817 27.6813 53.7209 28.0658 53.5767 28.4983L53.3365 29.2672L52.6636 28.7867C51.0777 27.6332 49.3475 26.7682 47.4732 26.1915L46.9926 26.0473L47.0407 25.5667C47.0888 24.8939 46.8965 24.173 46.5121 23.5963C45.7431 22.4909 44.3975 22.0103 43.0999 22.3468C42.8115 22.4429 42.5232 22.539 42.2829 22.6832L29.1147 31.0935C28.4418 31.526 28.0093 32.1508 27.8651 32.9197C27.7209 33.6887 27.9132 34.5057 28.3457 35.1304C29.1147 36.2358 30.4603 36.7164 31.7579 36.38C32.0463 36.2839 32.3346 36.1877 32.5749 36.0436L37.6211 32.8236C38.4381 32.295 39.3513 31.9105 40.3124 31.6221C44.5897 30.5168 49.0592 32.1988 51.5583 35.8033C53.0962 37.9179 53.6729 40.5611 53.2403 43.1563C52.8078 45.6554 51.2699 47.9141 49.1073 49.2598L35.891 57.6701C35.074 58.1988 34.1609 58.5832 33.1997 58.8716Z" fill="white"/>
</g>
<defs>
<clipPath id="clip0_2_583">
<rect width="56.7227" height="56.7227" fill="white" transform="translate(8.63879 8.50439)"/>
</clipPath>
</defs>
</svg>
