<svg width="100%" height="100%" style="overflow:visible;" preserveAspectRatio="none" viewBox="0 0 72.61 72.61" fill="none" xmlns="http://www.w3.org/2000/svg">
<g clip-path="url(#clip0_2_389)">
<path d="M22.7097 17.3555C22.7097 13.5317 23.7585 11.4515 29.549 10.461C33.4802 9.78733 38.5208 9.70313 43.2227 10.461C46.9363 11.0603 50.062 13.7647 50.062 17.3555V29.9711C50.062 33.6711 47.0273 36.702 43.2227 36.702H29.549C24.9083 36.702 20.9971 40.5705 20.9971 44.9439V50.9966H16.2956C12.3187 50.9966 10.0032 48.1931 9.03051 44.2702C7.71846 39 7.77416 35.8599 9.03051 30.8126C10.1198 26.4094 13.6003 24.0862 17.5775 24.0862H36.3883V22.402H22.7094V17.3553L22.7097 17.3555Z" fill="url(#paint0_linear_2_389)"/>
<path d="M50.0623 57.7278C50.0623 61.5516 46.6679 63.4883 43.223 64.4542C38.0403 65.9104 33.8808 65.6875 29.5493 64.4542C25.9318 63.4241 22.71 61.3189 22.71 57.7278V45.1122C22.71 41.4815 25.8055 38.3813 29.5493 38.3813H43.223C47.7776 38.3813 51.7748 34.5331 51.7748 29.971V24.0867H56.9019C60.8839 24.0867 62.7587 26.9792 63.7412 30.8131C65.1089 36.1378 65.1698 40.1199 63.7412 44.2707C62.3582 48.3025 60.8788 50.9971 56.9019 50.9971H36.3886V52.6813H50.0623V57.7278Z" fill="url(#paint1_linear_2_389)"/>
<path d="M26.1294 16.5185C26.1294 15.1218 27.2743 13.9923 28.6932 13.9923C30.1066 13.9923 31.257 15.1215 31.257 16.5185C31.257 17.9107 30.1068 19.0397 28.6932 19.0397C27.2749 19.0397 26.1294 17.9104 26.1294 16.5185ZM41.515 58.5651C41.515 57.1729 42.6652 56.044 44.0788 56.044C45.4971 56.044 46.6427 57.1732 46.6427 58.5651C46.6427 59.9618 45.4977 61.0913 44.0788 61.0913C42.6655 61.0913 41.515 59.9621 41.515 58.5651Z" fill="white"/>
</g>
<defs>
<linearGradient id="paint0_linear_2_389" x1="50.0623" y1="25.8907" x2="8.0677" y2="25.5492" gradientUnits="userSpaceOnUse">
<stop stop-color="#366A96"/>
<stop offset="1" stop-color="#3679B0"/>
</linearGradient>
<linearGradient id="paint1_linear_2_389" x1="64.7897" y1="44.7757" x2="-18.3396" y2="44.7757" gradientUnits="userSpaceOnUse">
<stop stop-color="#FFC836"/>
<stop offset="1" stop-color="#FFE873"/>
</linearGradient>
<clipPath id="clip0_2_389">
<rect width="56.7227" height="56.7227" fill="white" transform="translate(8.06725 8.50439)"/>
</clipPath>
</defs>
</svg>
