<svg width="100%" height="100%" style="overflow:visible;" preserveAspectRatio="none" viewBox="0 0 20.1 20.1" fill="none" xmlns="http://www.w3.org/2000/svg">
<g clip-path="url(#clip0_42_226)">
<path d="M15.0499 7.72767C14.3003 7.72735 13.5622 7.91276 12.9018 8.26734C12.8415 8.10861 12.7344 7.97197 12.5946 7.87557C12.4549 7.77918 12.2891 7.72759 12.1193 7.72767H8.77003C8.66005 7.72761 8.55114 7.74922 8.44953 7.79128C8.34791 7.83333 8.25558 7.89501 8.17782 7.97277C8.10005 8.05054 8.03838 8.14287 7.99632 8.24448C7.95427 8.3461 7.93265 8.455 7.93272 8.56498V18.6127C7.93265 18.7227 7.95427 18.8316 7.99632 18.9332C8.03838 19.0348 8.10005 19.1272 8.17782 19.2049C8.25558 19.2827 8.34791 19.3444 8.44953 19.3864C8.55114 19.4285 8.66005 19.4501 8.77003 19.45H12.1193C12.2292 19.4501 12.3382 19.4285 12.4398 19.3864C12.5414 19.3444 12.6337 19.2827 12.7115 19.2049C12.7892 19.1272 12.8509 19.0348 12.893 18.9332C12.935 18.8316 12.9566 18.7227 12.9566 18.6127V14.0075C12.9566 13.7854 13.0448 13.5725 13.2018 13.4154C13.3589 13.2584 13.5718 13.1702 13.7939 13.1702C14.016 13.1702 14.2289 13.2584 14.386 13.4154C14.543 13.5725 14.6312 13.7854 14.6312 14.0075V18.6127C14.6311 18.7227 14.6528 18.8316 14.6948 18.9332C14.7369 19.0348 14.7985 19.1272 14.8763 19.2049C14.9541 19.2827 15.0464 19.3444 15.148 19.3864C15.2496 19.4285 15.3585 19.4501 15.4685 19.45H18.8178C18.9277 19.4501 19.0366 19.4285 19.1383 19.3864C19.2399 19.3444 19.3322 19.2827 19.41 19.2049C19.4877 19.1272 19.5494 19.0348 19.5915 18.9332C19.6335 18.8316 19.6551 18.7227 19.6551 18.6127V12.3329C19.6536 11.112 19.1679 9.9415 18.3046 9.07818C17.4412 8.21486 16.2708 7.72919 15.0499 7.72767V7.72767ZM17.9804 17.7754H16.3058V14.0075C16.3058 13.3413 16.0412 12.7024 15.5701 12.2313C15.099 11.7602 14.4601 11.4956 13.7939 11.4956C13.1277 11.4956 12.4888 11.7602 12.0177 12.2313C11.5466 12.7024 11.282 13.3413 11.282 14.0075V17.7754H9.60734V9.40229H11.282V9.99103C11.2821 10.1645 11.336 10.3337 11.4364 10.4752C11.5368 10.6167 11.6786 10.7236 11.8423 10.781C12.006 10.8384 12.1835 10.8436 12.3503 10.7959C12.5171 10.7481 12.6649 10.6497 12.7734 10.5143C13.1492 10.0371 13.6646 9.68913 14.2477 9.51899C14.8308 9.34885 15.4525 9.36505 16.0259 9.56532C16.5994 9.7656 17.096 10.14 17.4464 10.6361C17.7968 11.1323 17.9835 11.7255 17.9804 12.3329V17.7754ZM6.25809 7.72767H2.90885C2.79887 7.72761 2.68997 7.74922 2.58835 7.79128C2.48673 7.83333 2.3944 7.89501 2.31664 7.97277C2.23888 8.05054 2.1772 8.14287 2.13515 8.24448C2.09309 8.3461 2.07148 8.455 2.07154 8.56498V18.6127C2.07147 18.7227 2.09309 18.8316 2.13514 18.9332C2.1772 19.0348 2.23887 19.1272 2.31664 19.2049C2.3944 19.2827 2.48673 19.3444 2.58835 19.3864C2.68996 19.4285 2.79887 19.4501 2.90885 19.45H6.25809C6.36807 19.4501 6.47698 19.4285 6.57859 19.3864C6.68021 19.3444 6.77254 19.2827 6.8503 19.2049C6.92807 19.1272 6.98974 19.0348 7.0318 18.9332C7.07385 18.8316 7.09547 18.7227 7.0954 18.6127V8.56498C7.09547 8.455 7.07385 8.3461 7.0318 8.24448C6.98974 8.14287 6.92807 8.05054 6.8503 7.97277C6.77254 7.89501 6.68021 7.83333 6.57859 7.79128C6.47698 7.74922 6.36807 7.72761 6.25809 7.72767V7.72767ZM5.42078 17.7754H3.74616V9.40229H5.42078V17.7754ZM4.59574 1.48384C4.2293 1.46191 3.86223 1.51474 3.51684 1.63912C3.17146 1.7635 2.85499 1.95683 2.58667 2.20735C2.31835 2.45788 2.10379 2.76037 1.95604 3.09642C1.80829 3.43247 1.73044 3.79506 1.72722 4.16214C1.724 4.52922 1.79547 4.89312 1.9373 5.23171C2.07913 5.5703 2.28835 5.87651 2.55224 6.13171C2.81612 6.3869 3.12915 6.58576 3.4723 6.71618C3.81545 6.8466 4.18154 6.90586 4.5483 6.89036H4.57202C4.93943 6.91218 5.30743 6.85886 5.65353 6.73366C5.99964 6.60845 6.31658 6.41399 6.585 6.16216C6.85341 5.91032 7.06766 5.6064 7.21464 5.26897C7.36163 4.93154 7.43827 4.56768 7.43989 4.19963C7.4415 3.83157 7.36805 3.46705 7.22403 3.12835C7.08001 2.78964 6.86844 2.48385 6.60224 2.22967C6.33605 1.97549 6.02083 1.77826 5.67583 1.65002C5.33084 1.52179 4.96332 1.46524 4.59573 1.48384H4.59574ZM4.57203 5.21574H4.5483C4.40351 5.23332 4.25662 5.21974 4.1175 5.1759C3.97838 5.13207 3.85024 5.059 3.74167 4.96158C3.63311 4.86417 3.54663 4.74467 3.48803 4.61109C3.42943 4.47752 3.40007 4.33296 3.40192 4.18711C3.40192 3.56239 3.87045 3.15845 4.59574 3.15845C4.74201 3.13895 4.89077 3.15103 5.03199 3.19386C5.17321 3.23669 5.30361 3.30929 5.41441 3.40676C5.52521 3.50423 5.61383 3.62432 5.67431 3.75893C5.73479 3.89353 5.76572 4.03954 5.76503 4.18711C5.76503 4.81182 5.29649 5.21574 4.57203 5.21574Z" fill="#F1F1F1"/>
</g>
<defs>
<clipPath id="clip0_42_226">
<rect width="20.0955" height="20.0955" fill="white" transform="translate(0.397003 0.194336)"/>
</clipPath>
</defs>
</svg>
