<svg width="100%" height="100%" style="overflow:visible;" preserveAspectRatio="none" viewBox="0 0 20.1 20.1" fill="none" xmlns="http://www.w3.org/2000/svg">
<g clip-path="url(#clip0_42_13)">
<path d="M15.0719 7.68623C14.3223 7.68591 13.5843 7.87132 12.9239 8.2259C12.8636 8.06716 12.7565 7.93052 12.6167 7.83413C12.4769 7.73774 12.3111 7.68615 12.1413 7.68623H8.79209C8.68212 7.68616 8.57321 7.70778 8.47159 7.74983C8.36998 7.79189 8.27765 7.85356 8.19988 7.93133C8.12212 8.00909 8.06045 8.10142 8.01839 8.20304C7.97633 8.30465 7.95472 8.41356 7.95478 8.52354V18.5713C7.95472 18.6812 7.97633 18.7902 8.01839 18.8918C8.06044 18.9934 8.12212 19.0857 8.19988 19.1635C8.27764 19.2412 8.36997 19.3029 8.47159 19.345C8.57321 19.387 8.68212 19.4086 8.79209 19.4086H12.1413C12.2513 19.4086 12.3602 19.387 12.4618 19.345C12.5635 19.3029 12.6558 19.2412 12.7335 19.1635C12.8113 19.0857 12.873 18.9934 12.915 18.8918C12.9571 18.7902 12.9787 18.6812 12.9786 18.5713V13.9661C12.9786 13.744 13.0669 13.531 13.2239 13.374C13.3809 13.217 13.5939 13.1287 13.816 13.1287C14.038 13.1287 14.251 13.217 14.408 13.374C14.5651 13.531 14.6533 13.744 14.6533 13.9661V18.5713C14.6532 18.6812 14.6748 18.7902 14.7169 18.8918C14.7589 18.9934 14.8206 19.0857 14.8984 19.1635C14.9761 19.2412 15.0685 19.3029 15.1701 19.345C15.2717 19.387 15.3806 19.4086 15.4906 19.4086H18.8398C18.9498 19.4086 19.0587 19.387 19.1603 19.345C19.2619 19.3029 19.3543 19.2412 19.432 19.1635C19.5098 19.0857 19.5715 18.9934 19.6135 18.8918C19.6556 18.7902 19.6772 18.6812 19.6771 18.5713V12.2914C19.6756 11.0705 19.1899 9.90005 18.3266 9.03674C17.4633 8.17342 16.2928 7.68774 15.0719 7.68623V7.68623ZM18.0025 17.734H16.3279V13.9661C16.3279 13.2999 16.0632 12.6609 15.5922 12.1899C15.1211 11.7188 14.4822 11.4541 13.816 11.4541C13.1498 11.4541 12.5108 11.7188 12.0398 12.1899C11.5687 12.6609 11.304 13.2999 11.304 13.9661V17.734H9.6294V9.36085H11.304V9.94959C11.3041 10.1231 11.3581 10.2923 11.4585 10.4338C11.5588 10.5753 11.7007 10.6821 11.8644 10.7396C12.0281 10.797 12.2056 10.8022 12.3724 10.7544C12.5392 10.7067 12.687 10.6083 12.7955 10.4729C13.1712 9.99567 13.6867 9.64768 14.2698 9.47754C14.8529 9.30741 15.4745 9.3236 16.048 9.52388C16.6215 9.72415 17.118 10.0985 17.4684 10.5947C17.8188 11.0908 18.0056 11.684 18.0025 12.2914V17.734ZM6.28016 7.68623H2.93091C2.82094 7.68616 2.71203 7.70778 2.61041 7.74983C2.5088 7.79189 2.41647 7.85356 2.3387 7.93133C2.26094 8.00909 2.19927 8.10142 2.15721 8.20304C2.11515 8.30465 2.09354 8.41356 2.0936 8.52354V18.5713C2.09354 18.6812 2.11515 18.7902 2.15721 18.8918C2.19926 18.9934 2.26094 19.0857 2.3387 19.1635C2.41647 19.2412 2.5088 19.3029 2.61041 19.345C2.71203 19.387 2.82094 19.4086 2.93091 19.4086H6.28016C6.39013 19.4086 6.49904 19.387 6.60066 19.345C6.70227 19.3029 6.7946 19.2412 6.87237 19.1635C6.95013 19.0857 7.01181 18.9934 7.05386 18.8918C7.09592 18.7902 7.11753 18.6812 7.11747 18.5713V8.52354C7.11753 8.41356 7.09592 8.30465 7.05386 8.20304C7.0118 8.10142 6.95013 8.00909 6.87237 7.93133C6.7946 7.85356 6.70227 7.79189 6.60066 7.74983C6.49904 7.70778 6.39013 7.68616 6.28016 7.68623V7.68623ZM5.44285 17.734H3.76822V9.36085H5.44285V17.734ZM4.6178 1.4424C4.25136 1.42046 3.88429 1.47329 3.53891 1.59767C3.19352 1.72205 2.87705 1.91539 2.60873 2.16591C2.34041 2.41644 2.12585 2.71892 1.9781 3.05497C1.83035 3.39102 1.7525 3.75362 1.74928 4.1207C1.74606 4.48778 1.81754 4.85168 1.95937 5.19027C2.1012 5.52886 2.31042 5.83507 2.5743 6.09026C2.83818 6.34546 3.15122 6.54431 3.49436 6.67473C3.83751 6.80516 4.2036 6.86442 4.57037 6.84892H4.59408C4.96149 6.87074 5.32949 6.81742 5.6756 6.69221C6.0217 6.56701 6.33865 6.37255 6.60706 6.12071C6.87547 5.86888 7.08972 5.56496 7.23671 5.22753C7.3837 4.8901 7.46034 4.52624 7.46195 4.15818C7.46357 3.79013 7.39012 3.42561 7.2461 3.0869C7.10207 2.74819 6.8905 2.44241 6.62431 2.18823C6.35811 1.93405 6.04289 1.73682 5.69789 1.60858C5.3529 1.48034 4.98538 1.4238 4.61779 1.4424H4.6178ZM4.59409 5.17429H4.57037C4.42557 5.19188 4.27868 5.1783 4.13956 5.13446C4.00044 5.09063 3.8723 5.01755 3.76374 4.92014C3.65517 4.82273 3.56869 4.70322 3.51009 4.56965C3.45149 4.43608 3.42213 4.29152 3.42398 4.14566C3.42398 3.52095 3.89251 3.11701 4.6178 3.11701C4.76408 3.09751 4.91284 3.10958 5.05405 3.15242C5.19527 3.19525 5.32567 3.26785 5.43647 3.36532C5.54727 3.46279 5.63589 3.58287 5.69637 3.71748C5.75686 3.85209 5.78779 3.9981 5.78709 4.14566C5.78709 4.77037 5.31856 5.17429 4.59409 5.17429Z" fill="#F1F1F1" fill-opacity="0.7"/>
</g>
<defs>
<clipPath id="clip0_42_13">
<rect width="20.0955" height="20.0955" fill="white" transform="translate(0.418854 0.151245)"/>
</clipPath>
</defs>
</svg>
